<svg width="24" height="24" viewBox="0 0 24 24" fill="none" xmlns="http://www.w3.org/2000/svg">
<g clip-path="url(#clip0_358_1137)">
<path fill-rule="evenodd" clip-rule="evenodd" d="M11.9998 2C12.9788 1.9997 13.943 2.23896 14.8083 2.69692C15.6736 3.15487 16.4137 3.81761 16.964 4.6273C17.5143 5.43699 17.8581 6.36904 17.9655 7.34214C18.0728 8.31524 17.9404 9.29983 17.5798 10.21C18.4525 10.4487 19.26 10.8816 19.9418 11.4764C20.6235 12.0713 21.1619 12.8126 21.5167 13.6449C21.8715 14.4772 22.0334 15.379 21.9904 16.2828C21.9474 17.1865 21.7005 18.0688 21.2683 18.8637C20.8361 19.6586 20.2297 20.3454 19.4945 20.8728C18.7594 21.4002 17.9144 21.7545 17.023 21.9092C16.1315 22.0639 15.2166 22.0149 14.3467 21.7661C13.4769 21.5172 12.6745 21.0748 11.9998 20.472C11.3251 21.0748 10.5227 21.5172 9.65287 21.7661C8.78299 22.0149 7.8681 22.0639 6.97664 21.9092C6.08518 21.7545 5.24025 21.4002 4.50508 20.8728C3.7699 20.3454 3.16352 19.6586 2.7313 18.8637C2.29909 18.0688 2.05224 17.1865 2.00923 16.2828C1.96621 15.379 2.12815 14.4772 2.48291 13.6449C2.83768 12.8126 3.37609 12.0713 4.05785 11.4764C4.73961 10.8816 5.54707 10.4487 6.41981 10.21C6.05921 9.29983 5.9268 8.31524 6.03414 7.34214C6.14149 6.36904 6.48531 5.43699 7.03562 4.6273C7.58594 3.81761 8.32602 3.15487 9.19131 2.69692C10.0566 2.23896 11.0208 1.9997 11.9998 2ZM15.9998 12C14.9765 11.9983 13.9918 12.3904 13.2498 13.095C13.7278 13.955 13.9998 14.947 13.9998 16C14.0013 17.0167 13.7431 18.017 13.2498 18.906C13.7242 19.3547 14.3013 19.6805 14.9307 19.8548C15.56 20.0292 16.2225 20.0468 16.8602 19.9061C17.4979 19.7654 18.0915 19.4707 18.589 19.0478C19.0866 18.6248 19.4731 18.0865 19.7147 17.4798C19.9563 16.8731 20.0456 16.2165 19.975 15.5673C19.9043 14.918 19.6758 14.296 19.3094 13.7555C18.9429 13.2149 18.4497 12.7723 17.8728 12.4663C17.2959 12.1603 16.6528 12.0002 15.9998 12ZM7.54981 12.025C6.69284 12.1221 5.89019 12.4935 5.26154 13.084C4.6329 13.6744 4.21193 14.4522 4.06141 15.3015C3.91089 16.1507 4.03887 17.0258 4.42628 17.7963C4.81368 18.5669 5.43976 19.1916 6.21116 19.5773C6.98256 19.963 7.85797 20.089 8.70685 19.9366C9.55573 19.7842 10.3326 19.3615 10.9217 18.7316C11.5107 18.1016 11.8804 17.2982 11.9756 16.441C12.0708 15.5838 11.8863 14.7188 11.4498 13.975C9.95088 13.8384 8.55842 13.1422 7.54981 12.025ZM11.9998 4C10.9773 3.99911 9.99336 4.38979 9.24998 5.09179C8.5066 5.79379 8.06026 6.75382 8.00266 7.77465C7.94506 8.79549 8.28056 9.79963 8.94026 10.5808C9.59995 11.362 10.5337 11.8609 11.5498 11.975C12.5586 10.858 13.951 10.1619 15.4498 10.025C15.8065 9.41733 15.9964 8.72621 16.0002 8.02158C16.004 7.31696 15.8216 6.62383 15.4715 6.01234C15.1213 5.40086 14.6159 4.89272 14.0062 4.53935C13.3966 4.18598 12.7044 3.99992 11.9998 4Z" fill="black"/>
</g>
<defs>
<clipPath id="clip0_358_1137">
<rect width="24" height="24" fill="white"/>
</clipPath>
</defs>
</svg>
