<svg width="512" height="512" viewBox="0 0 512 512" fill="none" xmlns="http://www.w3.org/2000/svg">
<path d="M222.86 178.293C210.551 165.984 190.595 165.982 178.287 178.29C165.98 190.597 165.982 210.553 178.291 222.862L401.143 445.714C413.452 458.023 433.408 458.025 445.715 445.718C458.023 433.41 458.021 413.454 445.712 401.145L222.86 178.293Z" stroke="black" stroke-width="32" stroke-miterlimit="10"/>
<path d="M178.38 178.38C175.441 181.318 173.11 184.806 171.52 188.645C169.929 192.484 169.111 196.599 169.111 200.755C169.111 204.91 169.929 209.025 171.52 212.864C173.11 216.703 175.441 220.192 178.38 223.13L223.25 268L268 223.25L223.13 178.38C220.192 175.441 216.704 173.11 212.865 171.519C209.025 169.929 204.911 169.11 200.755 169.11C196.6 169.11 192.485 169.929 188.646 171.519C184.806 173.11 181.318 175.441 178.38 178.38Z" fill="black"/>
<path d="M48 192H96ZM90.18 90.18L124.12 124.12ZM192 48V96ZM293.82 90.18L259.88 124.12ZM124.12 259.88L90.18 293.82Z" fill="black"/>
<path d="M48 192H96M90.18 90.18L124.12 124.12M192 48V96M293.82 90.18L259.88 124.12M124.12 259.88L90.18 293.82" stroke="black" stroke-width="32" stroke-miterlimit="10" stroke-linecap="round"/>
</svg>
